<svg id="Layer_1" data-name="Layer 1" xmlns="http://www.w3.org/2000/svg" xmlns:xlink="http://www.w3.org/1999/xlink" viewBox="0 0 935.69 198.43"><defs><style>.cls-1{fill:#fff;}.cls-2{fill:url(#linear-gradient);}.cls-3{fill:url(#linear-gradient-2);}.cls-4{fill:url(#linear-gradient-3);}.cls-5{fill:url(#linear-gradient-4);}.cls-6{fill:url(#New_Gradient_Swatch_1);}.cls-7{fill:url(#New_Gradient_Swatch_1-2);}.cls-8{fill:#31c0ce;}.cls-9{fill:url(#linear-gradient-5);}</style><linearGradient id="linear-gradient" x1="136.37" y1="198.43" x2="136.37" y2="28.69" gradientUnits="userSpaceOnUse"><stop offset="0" stop-color="#f8981d"/><stop offset="1" stop-color="#f57f20"/></linearGradient><linearGradient id="linear-gradient-2" x1="150.14" y1="170.11" x2="150.14" y2="193.77" gradientUnits="userSpaceOnUse"><stop offset="0" stop-color="#f6eb16"/><stop offset="1" stop-color="#f57f20"/></linearGradient><linearGradient id="linear-gradient-3" x1="147.87" y1="182.88" x2="147.87" y2="29.62" xlink:href="#linear-gradient"/><linearGradient id="linear-gradient-4" x1="131.98" y1="94.99" x2="155.33" y2="101.25" xlink:href="#linear-gradient-2"/><linearGradient id="New_Gradient_Swatch_1" x1="210.91" y1="196.13" x2="210.91" y2="28.35" gradientUnits="userSpaceOnUse"><stop offset="0" stop-color="#31c0ce"/><stop offset="1" stop-color="#0d8cae"/></linearGradient><linearGradient id="New_Gradient_Swatch_1-2" x1="165.38" y1="189.67" x2="165.38" y2="29.79" xlink:href="#New_Gradient_Swatch_1"/><linearGradient id="linear-gradient-5" x1="863.02" y1="165.14" x2="863.02" y2="68.9" gradientUnits="userSpaceOnUse"><stop offset="0.37" stop-color="#fce902"/><stop offset="1" stop-color="#f0a421"/></linearGradient></defs><title>logo-santriasuh</title><circle class="cls-1" cx="99.21" cy="99.21" r="99.21"/><g id="orange"><path class="cls-2" d="M176.62,189.61c-2.27.2-4.57,0.31-6.9,0.31a76.53,76.53,0,0,1-.86-153.06,29.28,29.28,0,0,0-6.55-8.17,85,85,0,1,0,25.52,167.84A126.41,126.41,0,0,1,176.62,189.61Z" transform="translate(-70.74 -14.17)"/><path class="cls-3" d="M181.94,193.1c-1.65-1-3.44-2.19-5.32-3.49-2.27.2-4.57,0.31-6.9,0.31a76.25,76.25,0,0,1-51.38-19.81h0C140.75,195.92,171,194.58,181.94,193.1Z" transform="translate(-70.74 -14.17)"/><path class="cls-4" d="M142.46,130.78C147.73,89.09,189,54.33,163.3,29.62c2.13,2.25,6.64,8.64,3.33,20.06-4.23,14.6-20,27.19-29.83,42.84s-13,32.79-12.69,35.23,8.67,19.15,8.67,19.15c-2.86-2.12-7.93-8.57-7.93-8.57,0.21,4,2.33,16.08,6.14,21.69s12.06,6.35,19.46,11.11c4.6,3,12.21,8.21,17.33,11.76C153.89,171.23,139.6,153.43,142.46,130.78Z" transform="translate(-70.74 -14.17)"/><path class="cls-5" d="M127,143.22l6.4,4.19c-2-32,10.48-51.53,25.38-72.83s8.72-38,8.72-38l-0.27.23a24,24,0,0,1-.55,12.81c-4.23,14.6-20,27.19-29.83,42.84s-13,32.79-12.69,35.23,8.67,19.15,8.67,19.15c-2.86-2.12-7.93-8.57-7.93-8.57,0.21,4,2.33,16.08,6.14,21.69a12.81,12.81,0,0,0,3.94,3.64C128.79,158.26,127,143.22,127,143.22Z" transform="translate(-70.74 -14.17)"/></g><g id="cyan"><path class="cls-6" d="M241.45,159.42a85,85,0,0,0-71.5-131.08c-0.84,0-1.68,0-2.51,0a25.79,25.79,0,0,1,4.94,8.51A76.54,76.54,0,0,1,234.58,154L202.8,135.19l-36,31.06,10.2-.81,2.06,24.43,9.52,6.25L184,190.94l-1.95-29.65-1.61.13,22.74-19.73s21,13.25,29.5,18h0c6,3.51,7.92,1,8.72-.27h0Z" transform="translate(-70.74 -14.17)"/><path class="cls-7" d="M163.11,83.71c-22.21,39.72-23.21,64.18-5.43,86.4,5.14,6.43,14.36,15.54,21.16,19.55-2.7-2.71-8.6-8.36-11.26-13.79-5.83-11.94.11-16.4,4.76-25S175,132.4,175,132.4c-3.7,1.06-12,6.88-12,6.88s0.74-2.54,4.87-5.71,7.41-5.82,8.46-14.6,4-10.68,4-10.68c-5.61,3.28-12.69,3.6-12.69,3.6s8.25-3,12.48-10.16,5.29-18.41,5.29-18.41L176.89,87c-0.11-2.43,7.09-19.46,5.4-33s-13.12-24.12-13.12-24.12l-0.59-.1C173.82,36.7,180.85,52,163.11,83.71Z" transform="translate(-70.74 -14.17)"/><path class="cls-8" d="M175.22,37.05s12.61,16.77-10.81,60.3c-21.75,40.42-5.56,71.74,2.44,80a21.08,21.08,0,0,1,1.88-20.45c8.05-12,5.11-22.92,5.11-22.92a91.8,91.8,0,0,0-11.94,6.9s1.28-4.16,7.21-9.2c8.11-6.9,5.11-13.35,8.11-21.09,0,0-5.58,1.92-9,1.25,0,0,13.7-6.67,16.26-27.13,0,0-5,1.53-7.55,2.3C176.39,80.62,191,58.39,175.22,37.05Z" transform="translate(-70.74 -14.17)"/><circle class="cls-8" cx="126.12" cy="160.29" r="10.8"/><circle class="cls-8" cx="154.3" cy="115.49" r="8.12"/><circle class="cls-8" cx="132.93" cy="96.87" r="5.87"/></g><path class="cls-1" d="M315,135.21l0.13-.44h17.63q0,8.92,3.59,12.82t10.57,3.91q5.85,0,8.78-3.22a12.24,12.24,0,0,0,2.93-8.56q0-5.6-2.86-8.85t-10.26-6.34q-14.47-5.09-21.71-11.53t-7.24-18q0-11.58,8.3-18.85T346,68.83q13.64,0,21.94,7.76,8,7.5,8,20v0.68l-0.13.34H358.27q0-7.21-3.25-10.94T345.72,83a10,10,0,0,0-8.11,3.45,12.91,12.91,0,0,0-2.9,8.6,10.33,10.33,0,0,0,3.28,7.86q3.28,3.09,11.26,6.76,13.57,4.51,20.56,11.4t7,18.55q0,11.95-8.17,18.78t-21.68,6.83q-13.32.06-22.78-7.35Q315,150.69,315,136.31v-1.09Zm67.49,28.64,26.62-93.68h18.75l26.56,93.68h-19l-5.33-20.39H406.77l-5.27,20.39h-19Zm28-34.55h15.93l-7.77-29.72h-0.39ZM462,163.86V70.18h18.14L509.85,130l0.39-.06V70.18h18.14v93.68H510.23l-29.72-59.77-0.39.06v59.71H462Zm73.6-79.52V70.18h61.7V84.34H575.21v79.52H557.07V84.34H535.58Zm70.58,79.52V70.25h28.05q14,0,22,7.27t8,20.27a23.08,23.08,0,0,1-3.38,12.61,23.53,23.53,0,0,1-9.75,8.49q7.34,2.45,10.55,8.11t3.22,14.15V148a40.19,40.19,0,0,0,.9,8.24,11,11,0,0,0,3.22,6.31v1.35H650.17q-2.25-2.06-2.86-6.72a71.38,71.38,0,0,1-.61-9.3v-6.56q0-7.14-3-11.07a10,10,0,0,0-8.49-3.92H624.3v37.57H606.16Zm18.14-51.73h9.78q5.85,0,8.91-3.51T646,98.68q0-6.56-3-10.42t-8.81-3.86H624.3v27.73Zm55.59,51.73V70.18H698v93.68H679.89Z" transform="translate(-70.74 -14.17)"/><path class="cls-9" d="M770.63,139.35H739l-7.27,24.51h-12.1l30.17-93.68h10.1l30.24,93.68H778Zm-28.57-10.1h25.54l-12.8-42.59Zm101.72,10.94q0-7-3.8-10.74t-13.7-7.27q-9.91-3.54-15.15-7.43a26.28,26.28,0,0,1-7.85-8.88,24.3,24.3,0,0,1-2.61-11.42q0-11.13,7.43-18.34t19.46-7.21a29,29,0,0,1,14.67,3.68,25.09,25.09,0,0,1,9.91,10.23,30.28,30.28,0,0,1,3.47,14.4H843.78q0-8.69-4.18-13.45t-12-4.76q-7.14,0-11.07,4t-3.92,11.21a13.08,13.08,0,0,0,4.25,9.93q4.25,4,13.12,7.15,13.83,4.58,19.78,11.27t6,17.5q0,11.39-7.4,18.24t-20.14,6.85a32.4,32.4,0,0,1-15.09-3.57,27,27,0,0,1-10.87-10,27.83,27.83,0,0,1-4-14.83h11.84q0,8.69,4.86,13.51T828.15,155q7.78,0,11.71-4T843.78,140.18Zm83.19-70v66.59q-0.13,13.32-7.72,20.85t-21.17,7.53q-13.9,0-21.23-7.37t-7.46-21V70.18H881.1v66.09q0,9.45,4,14.11t13,4.66q9,0,13-4.66t4-14.11V70.18H927Zm79.46,93.68H994.59v-43.3h-37.7v43.3H945.12V70.18h11.77v40.28h37.7V70.18h11.84v93.68Z" transform="translate(-70.74 -14.17)"/></svg>